<?xml version="1.0" standalone="no"?><!DOCTYPE svg PUBLIC "-//W3C//DTD SVG 1.1//EN" "http://www.w3.org/Graphics/SVG/1.1/DTD/svg11.dtd"><svg t="1714354724044" class="icon" viewBox="0 0 1024 1024" version="1.1" xmlns="http://www.w3.org/2000/svg" p-id="4330" width="32" height="32" xmlns:xlink="http://www.w3.org/1999/xlink"><path d="M126.122667 65.137778h771.811555a91.022222 91.022222 0 0 1 91.022222 91.022222v530.432a91.022222 91.022222 0 0 1-91.022222 91.022222H126.122667a91.022222 91.022222 0 0 1-91.022223-91.022222V156.16a91.022222 91.022222 0 0 1 91.022223-91.022222z m771.811555 644.209778a22.755556 22.755556 0 0 0 22.755556-22.755556V156.16a22.755556 22.755556 0 0 0-22.755556-22.755556H126.122667a22.755556 22.755556 0 0 0-22.755556 22.755556v530.432a22.755556 22.755556 0 0 0 22.755556 22.755556z" p-id="4331" fill="#707070"></path><path d="M674.190222 958.748444h-324.266666a34.133333 34.133333 0 1 1 0-68.266666h324.266666a34.133333 34.133333 0 0 1 0 68.266666z" p-id="4332" fill="#707070"></path><path d="M739.441778 958.748444h-455.111111a34.133333 34.133333 0 0 1-34.133334-34.133333 34.133333 34.133333 0 0 1 34.133334-34.133333h455.111111a34.133333 34.133333 0 1 1 0 68.266666z" p-id="4333" fill="#707070"></path><path d="M233.585778 453.404444a34.133333 34.133333 0 0 1-25.315556-11.377777 34.133333 34.133333 0 0 1 2.56-47.786667l134.542222-122.026667a34.133333 34.133333 0 0 1 48.241778 2.56 34.133333 34.133333 0 0 1-2.446222 48.071111l-134.826667 121.742223a34.133333 34.133333 0 0 1-22.755555 8.817777z" p-id="4334" fill="#707070"></path><path d="M790.471111 453.404444a34.133333 34.133333 0 0 1-22.755555-8.817777l-134.712889-121.742223a34.133333 34.133333 0 0 1-2.56-48.071111 34.133333 34.133333 0 0 1 48.071111-2.56l134.826666 122.026667a34.133333 34.133333 0 0 1-22.755555 59.448889z" p-id="4335" fill="#707070"></path><path d="M368.298667 575.146667a34.133333 34.133333 0 0 1-22.755556-8.817778l-134.712889-121.742222a34.133333 34.133333 0 0 1-2.56-48.071111 34.133333 34.133333 0 0 1 48.071111-2.56l134.826667 122.026666a34.133333 34.133333 0 0 1-22.755556 59.448889z" p-id="4336" fill="#707070"></path><path d="M655.758222 575.146667a34.133333 34.133333 0 0 1-25.315555-11.377778 34.133333 34.133333 0 0 1 2.56-47.786667l134.542222-122.026666a34.133333 34.133333 0 0 1 48.241778 2.56 34.133333 34.133333 0 0 1-2.446223 48.071111l-134.826666 121.742222a34.133333 34.133333 0 0 1-22.755556 8.817778z" p-id="4337" fill="#707070"></path><path d="M459.264 599.153778a34.133333 34.133333 0 0 1-12.401778-2.332445 34.133333 34.133333 0 0 1-19.399111-44.202666l112.071111-287.118223a34.133333 34.133333 0 0 1 44.202667-19.399111 34.133333 34.133333 0 0 1 19.399111 44.202667l-112.071111 287.118222a34.133333 34.133333 0 0 1-31.800889 21.731556z" p-id="4338" fill="#707070"></path></svg>